<?xml version="1.0" encoding="utf-8"?>
<svg width="40px" height="40px" viewBox="43.661 51.31 71.708 71.961" xmlns="http://www.w3.org/2000/svg">
  <defs/>
  <g fill="none" fill-rule="evenodd" transform="matrix(1, 0, 0, 1, 43.349895, 51.476101)">
    <path d="M35.9985,12 C22.746,12 12,22.7870921 12,36.096644 C12,46.7406712 18.876,55.7718301 28.4145,58.9584121 C29.6145,59.1797862 30.0525,58.4358488 30.0525,57.7973276 C30.0525,57.2250681 30.0315,55.7100863 30.0195,53.6996482 C23.343,55.1558981 21.9345,50.4693938 21.9345,50.4693938 C20.844,47.6864054 19.2705,46.9454799 19.2705,46.9454799 C17.091,45.4500754 19.4355,45.4801943 19.4355,45.4801943 C21.843,45.6503662 23.1105,47.9634994 23.1105,47.9634994 C25.2525,51.6455377 28.728,50.5823398 30.096,49.9649018 C30.3135,48.4077535 30.9345,47.3460615 31.62,46.7436831 C26.2905,46.1352808 20.688,44.0691228 20.688,34.8361671 C20.688,32.2052792 21.6225,30.0547881 23.1585,28.3696344 C22.911,27.7597262 22.0875,25.3110578 23.3925,21.9934585 C23.3925,21.9934585 25.4085,21.3459017 29.9925,24.4632101 C31.908,23.9285993 33.96,23.6620468 36.0015,23.6515052 C38.04,23.6620468 40.0935,23.9285993 42.0105,24.4632101 C46.5915,21.3459017 48.603,21.9934585 48.603,21.9934585 C49.9125,25.3110578 49.089,27.7597262 48.8415,28.3696344 C50.3805,30.0547881 51.309,32.2052792 51.309,34.8361671 C51.309,44.0917119 45.6975,46.1292571 40.3515,46.7256117 C41.2125,47.4695491 41.9805,48.9393525 41.9805,51.1877301 C41.9805,54.4089489 41.9505,57.0067059 41.9505,57.7973276 C41.9505,58.4418726 42.3825,59.1918338 43.6005,58.9554002 C53.13,55.7627944 60,46.7376593 60,36.096644 C60,22.7870921 49.254,12 35.9985,12" fill="#FFF"/>
  </g>
  <g fill="none" fill-rule="evenodd" transform="matrix(1, 0, 0, 1, 103.815254, 69.964882)">
    <rect x="-60.154" y="-18.655" width="71.708" height="71.961" style="stroke: rgb(0, 0, 0); fill: rgb(0, 0, 0);"/>
    <path d="M -24.302 -7.174 C -24.302 -7.174 -26.004 -7.13 -26.857 -7.045 C -27.697 -6.959 -28.525 -6.831 -29.339 -6.665 C -30.965 -6.328 -32.534 -5.835 -34.03 -5.202 C -37.017 -3.923 -39.709 -2.09 -41.977 0.174 C -46.476 4.739 -49.3 10.989 -49.3 17.919 C -49.3 23.461 -47.491 28.57 -44.476 32.734 C -41.426 36.87 -37.169 40.066 -32.197 41.727 L -31.546 39.748 L -32.078 39.572 L -32.754 41.543 L -32.361 41.682 C -32.141 41.759 -31.805 41.85 -31.551 41.812 C -31.056 41.742 -30.804 41.316 -30.88 41.457 C -30.914 41.482 -30.943 41.508 -30.925 41.495 C -30.881 41.464 -30.551 41.133 -30.501 40.793 C -30.465 40.554 -30.496 40.445 -30.496 40.516 C -30.496 39.92 -30.509 38.936 -30.521 37.447 L -30.53 36.279 L -31.672 36.42 C -34.542 36.775 -36.147 36.179 -37.348 35.135 C -38.64 34.171 -38.871 33.124 -38.959 32.86 C -40.151 29.981 -41.82 29.177 -41.82 29.177 L -41.88 29.156 L -41.743 29.204 L -41.623 29.288 L -41.713 29.225 C -42.293 28.825 -42.603 28.545 -42.657 28.322 C -42.74 28.23 -42.74 28.107 -42.67 28.048 C -42.674 27.954 -42.577 27.901 -42.492 27.869 C -42.197 27.619 -41.543 27.69 -41.543 27.69 L -41.43 27.702 L -41.663 27.682 C -40.356 27.792 -39.31 28.436 -38.701 29.049 C -38.042 29.654 -37.788 30.175 -37.712 30.3 C -36.548 32.248 -35.107 32.86 -33.784 32.996 C -32.453 33.083 -31.695 32.903 -30.948 32.571 L -30.454 32.351 L -30.355 31.816 C -30.253 31.256 -30.201 31.086 -30.13 30.929 C -30.077 30.809 -29.988 30.674 -29.768 30.263 L -29.108 29.018 L -30.508 28.762 C -32.833 28.338 -34.532 28.03 -36.638 26.174 C -38.818 24.388 -40.25 21.414 -40.25 16.606 C -40.25 13.873 -39.427 12.025 -38.026 10.288 L -37.701 9.884 L -37.834 9.376 C -38.162 8.139 -38.788 6.668 -37.422 3.203 L -37.243 2.706 L -37.433 3.235 L -37.981 3.366 L -37.51 3.254 C -37.51 3.254 -35.485 2.615 -30.932 5.572 L -30.573 5.804 L -30.133 5.691 C -28.249 5.209 -26.426 4.97 -24.304 4.958 C -22.182 4.97 -20.35 5.209 -18.463 5.691 L -18.022 5.804 L -17.664 5.571 C -13.114 2.615 -11.095 3.254 -11.095 3.254 L -10.622 3.366 L -11.171 3.235 L -11.361 2.704 L -11.182 3.2 C -9.813 6.667 -10.436 8.136 -10.765 9.374 L -10.901 9.884 L -10.571 10.289 C -9.164 12.024 -8.353 13.872 -8.353 16.606 C -8.353 21.425 -9.786 24.398 -11.972 26.179 C -14.076 28.029 -15.783 28.312 -18.113 28.744 L -19.552 29.009 L -18.849 30.246 C -18.177 31.427 -18.07 31.468 -18.07 33.634 C -18.07 36.988 -18.102 39.693 -18.102 40.516 C -18.102 40.463 -18.128 40.567 -18.098 40.789 C -18.053 41.116 -17.74 41.45 -17.684 41.492 C -17.663 41.508 -17.685 41.486 -17.717 41.463 C -17.798 41.315 -17.532 41.758 -17.025 41.82 C -16.775 41.85 -16.449 41.757 -16.227 41.678 L -15.957 41.581 L -16.635 39.612 L -17.04 39.745 L -16.388 41.724 C -11.42 40.059 -7.165 36.864 -4.118 32.73 C -1.107 28.567 0.7 23.46 0.7 17.919 C 0.7 10.989 -2.122 4.739 -6.623 0.174 C -11.168 -4.341 -17.398 -7.173 -24.309 -7.174 L -24.302 -7.174" fill="#FFF" style="transform-box: fill-box; transform-origin: 50% 50%;"/>
  </g>
</svg>