<?xml version="1.0" encoding="utf-8"?>
<svg width="48" height="48" viewBox="0 0 50 50" fill="none" xmlns="http://www.w3.org/2000/svg">
  <defs/>
  <path  d="M 44.5 24 C 44.5 29.625 42.178 34.813 38.496 38.496 C 34.813 42.178 29.625 44.5 24 44.5 C 18.375 44.5 13.187 42.178 9.504 38.496 C 5.822 34.813 3.5 29.625 3.5 24 C 3.5 18.375 5.822 13.187 9.504 9.504 C 13.187 5.822 18.375 3.5 24 3.5 C 29.625 3.5 34.813 5.822 38.496 9.504 C 42.178 13.187 44.5 18.375 44.5 24 Z M 37.789 10.211 C 34.232 6.655 29.421 4.5 24 4.5 C 18.579 4.5 13.768 6.655 10.211 10.211 C 6.655 13.768 4.5 18.579 4.5 24 C 4.5 29.421 6.655 34.232 10.211 37.789 C 13.768 41.345 18.579 43.5 24 43.5 C 29.421 43.5 34.232 41.345 37.789 37.789 C 41.345 34.232 43.5 29.421 43.5 24 C 43.5 18.579 41.345 13.768 37.789 10.211 Z M -0.5 24 C -0.5 17.27 2.27 11.082 6.676 6.676 C 11.082 2.27 17.27 -0.5 24 -0.5 C 30.73 -0.5 36.918 2.27 41.324 6.676 C 45.73 11.082 48.5 17.27 48.5 24 C 48.5 30.73 45.73 36.918 41.324 41.324 C 36.918 45.73 30.73 48.5 24 48.5 C 17.27 48.5 11.082 45.73 6.676 41.324 C 2.27 36.918 -0.5 30.73 -0.5 24 Z M 7.383 40.617 C 11.663 44.897 17.475 47.5 24 47.5 C 30.525 47.5 36.337 44.897 40.617 40.617 C 44.897 36.337 47.5 30.525 47.5 24 C 47.5 17.475 44.897 11.663 40.617 7.383 C 36.337 3.103 30.525 0.5 24 0.5 C 17.475 0.5 11.663 3.103 7.383 7.383 C 3.103 11.663 0.5 17.475 0.5 24 C 0.5 30.525 3.103 36.337 7.383 40.617 Z" style=""/>
  <circle style="stroke: #fff; fill: #fff;" cx="25" cy="25" r="24"/>
  <path fill-rule="evenodd" clip-rule="evenodd" d="M 18.943 46.843 C 18.706 46.567 18.706 44.102 18.943 39.451 C 16.391 39.531 14.776 39.371 14.103 38.973 C 13.096 38.377 12.083 36.537 11.187 35.239 C 10.288 33.942 8.298 33.738 7.495 33.447 C 6.689 33.157 6.487 31.976 9.709 32.869 C 12.928 33.763 13.086 36.198 14.103 36.767 C 15.118 37.335 17.549 37.086 18.648 36.63 C 19.752 36.175 19.67 34.478 19.865 33.805 C 20.115 33.177 19.241 33.038 19.22 33.034 C 18.144 33.034 12.499 31.929 10.945 27.015 C 9.396 22.101 11.393 18.889 12.461 17.507 C 13.17 16.587 13.108 14.625 12.271 11.623 C 15.307 11.273 17.651 12.132 19.303 14.199 C 19.305 14.211 21.464 13.044 24.88 13.044 C 28.299 13.044 29.508 13.994 30.444 14.199 C 31.381 14.404 32.128 10.582 37.906 11.623 C 36.698 13.752 35.69 16.414 36.46 17.507 C 37.231 18.602 40.256 22.08 38.395 27.015 C 37.159 30.306 34.723 32.311 31.091 33.034 C 30.674 33.152 30.466 33.345 30.466 33.61 C 30.466 34.01 31.029 34.053 31.84 35.922 C 32.381 37.167 32.42 40.725 31.957 46.594 C 30.785 46.862 29.875 47.043 29.221 47.134 C 28.067 47.298 26.811 47.39 25.58 47.424 C 24.346 47.459 23.918 47.456 22.216 47.313 C 21.078 47.218 19.989 47.062 18.943 46.843 Z" fill="black"  />
</svg>